# xmcd CD database file
#
# Track frame offsets:
#	150
#	8518
#	19856
#	29803
#	40012
#	48062
#	57799
#	69490
#	81088
#	91779
#	102910
#	110912
#	119643
#	127543
#
# Disc length: 1835 seconds
#
# Revision: 1
# Processed by: cddbd v1.5.1PL0 Copyright (c) Steve Scherf et al.
# Submitted via: CDex 1.51
#
DISCID=a907290e
DTITLE=Johnny Cash - Johnny Cash Volume 1
DYEAR=1900
DGENRE=Country
TTITLE0=Country Boy
TTITLE1=Big River
TTITLE2=Hey! Porter
TTITLE3=You Win Again
TTITLE4=The Wreck of Ol' 97
TTITLE5=Story of a Broken Heart
TTITLE6=Doin' My Time
TTITLE7=So Doggone Lonesome
TTITLE8=Train of Love
TTITLE9=Oh, Lonesome Me
TTITLE10=Sugartime
TTITLE11=Two-Timin' Woman
TTITLE12=I Can't Help It (If I'm Still In Love With You)
TTITLE13=There You Go
EXTD=
EXTT0=
EXTT1=
EXTT2=
EXTT3=
EXTT4=
EXTT5=
EXTT6=
EXTT7=
EXTT8=
EXTT9=
EXTT10=
EXTT11=
EXTT12=
EXTT13=
PLAYORDER=
